<svg width="32" height="30" viewBox="0 0 32 30" fill="none" xmlns="http://www.w3.org/2000/svg">
<path d="M12.8388 5.70133e-06C13.5278 0.00124172 14.1925 0.262994 14.7091 0.735998C15.2256 1.20902 15.5587 1.86114 15.6455 2.5703C15.7322 3.2794 15.5669 3.99703 15.1808 4.58895C14.7946 5.18094 14.2136 5.60681 13.5468 5.7867V7.44209C14.1549 7.60533 14.6939 7.97337 15.0784 8.48866C15.4628 9.00394 15.6713 9.63727 15.6713 10.2889C15.6713 10.9406 15.4628 11.5739 15.0784 12.0892C14.6939 12.6045 14.1549 12.9725 13.5468 13.1357L13.5464 14.8688H13.5757C13.5758 15.2166 13.6947 15.5532 13.9114 15.8186C14.1281 16.084 15.3303 16.2613 15.6613 16.3185L19.5185 16.8125C20.1798 16.9269 20.7807 17.2811 21.2141 17.8119C21.6476 18.3427 21.8857 19.0162 21.8858 19.712L21.8696 24.2128C22.5385 24.3906 23.122 24.8158 23.5101 25.4083C23.8982 26.0009 24.0644 26.7204 23.9774 27.4311C23.8904 28.1418 23.5561 28.795 23.0375 29.2681C22.5189 29.7412 21.8517 30.0014 21.1612 30C20.4723 29.9988 19.8075 29.7374 19.2909 29.2645C18.7744 28.7914 18.4413 28.1393 18.3545 27.4302C18.2677 26.721 18.433 26.0031 18.8192 25.4111C19.2054 24.8192 19.7861 24.3936 20.4527 24.2138L20.4694 19.712C20.4693 19.3641 20.35 19.0276 20.1333 18.7621C19.9166 18.4968 19.6164 18.3195 19.2857 18.2622L15.2936 17.6983C14.7851 17.6104 14.3175 17.6606 13.5464 17.2466V21.3651C14.1548 21.5281 14.6937 21.8962 15.0784 22.4117C15.463 22.9272 15.6716 23.5609 15.6713 24.2128C15.6713 24.9924 15.3729 25.7402 14.8417 26.2914C14.3104 26.8427 13.5897 27.1522 12.8384 27.1523C12.1495 27.1511 11.4843 26.8897 10.9677 26.4168C10.4512 25.9437 10.1186 25.2915 10.0318 24.5825C9.94496 23.8733 10.1098 23.1553 10.496 22.5633C10.8822 21.9714 11.4632 21.5459 12.13 21.366V13.1362C11.5214 12.9735 10.9822 12.6059 10.5971 12.0905C10.212 11.575 10.0029 10.9412 10.0029 10.2889C10.0029 9.63662 10.212 9.00283 10.5971 8.48731C10.9823 7.97179 11.5216 7.60379 12.1304 7.44121V5.78763C11.4615 5.60988 10.878 5.1847 10.4899 4.59213C10.1018 3.99954 9.9356 3.28018 10.0226 2.5694C10.1096 1.8586 10.4439 1.20504 10.9625 0.731912C11.4811 0.258851 12.1484 -0.00140454 12.8388 5.70133e-06ZM21.1612 25.5908C20.7855 25.5908 20.4252 25.7456 20.1595 26.0213C19.8939 26.2969 19.7447 26.6707 19.7447 27.0605C19.7448 27.4504 19.8939 27.8242 20.1595 28.0999C20.4252 28.3755 20.7855 28.5303 21.1612 28.5303C21.3472 28.5303 21.5315 28.4924 21.7033 28.4186C21.8752 28.3447 22.0313 28.2363 22.1628 28.0999C22.2943 27.9634 22.3988 27.8014 22.47 27.6231C22.5412 27.4448 22.5776 27.2536 22.5776 27.0605C22.5776 26.8676 22.5412 26.6763 22.47 26.498C22.3988 26.3197 22.2943 26.1577 22.1628 26.0213C22.0313 25.8848 21.8752 25.7764 21.7033 25.7025C21.5315 25.6287 21.3472 25.5908 21.1612 25.5908ZM12.8384 22.7427C12.4627 22.7427 12.1024 22.898 11.8368 23.1736C11.5711 23.4492 11.4215 23.823 11.4215 24.2128C11.4215 24.6026 11.5712 24.9765 11.8368 25.2521C12.1024 25.5277 12.4628 25.6826 12.8384 25.6826C13.214 25.6825 13.5744 25.5278 13.84 25.2521C14.1056 24.9765 14.2548 24.6026 14.2549 24.2128C14.2549 23.8231 14.1056 23.4492 13.84 23.1736C13.5744 22.898 13.214 22.7427 12.8384 22.7427ZM12.8388 8.81922C12.4631 8.81922 12.1029 8.974 11.8372 9.24961C11.5716 9.52527 11.4224 9.89912 11.4224 10.2889C11.4224 10.6787 11.5716 11.0526 11.8372 11.3282C12.1029 11.6038 12.4632 11.7586 12.8388 11.7586C13.0248 11.7586 13.2092 11.7208 13.381 11.6469C13.5528 11.5731 13.7089 11.4647 13.8405 11.3282C13.972 11.1917 14.0765 11.0297 14.1476 10.8515C14.2188 10.6732 14.2553 10.4819 14.2553 10.2889C14.2553 10.0959 14.2188 9.90466 14.1476 9.72635C14.0765 9.5481 13.972 9.38612 13.8405 9.24961C13.709 9.1132 13.5528 9.00478 13.381 8.9309C13.2092 8.85702 13.0248 8.81922 12.8388 8.81922ZM12.8388 1.46972C12.4632 1.46972 12.1029 1.6246 11.8372 1.90015C11.5716 2.17579 11.4224 2.55007 11.4224 2.93989C11.4224 3.32963 11.5716 3.70358 11.8372 3.97918C12.1029 4.25474 12.4632 4.40961 12.8388 4.40961C13.2145 4.40959 13.5748 4.25476 13.8405 3.97918C14.1061 3.70358 14.2552 3.32963 14.2553 2.93989C14.2553 2.55007 14.1061 2.17579 13.8405 1.90015C13.5748 1.62457 13.2145 1.46974 12.8388 1.46972Z" fill="#EA4B71"/>
</svg>